# xmcd
#
# Track frame offsets:
#	150
#	4653
#	17433
#	33229
#	48547
#	66100
#	79882
#	96667
#	114214
#	128615
#	144409
#	161076
#	176029
#	188229
#	206137
#
# Disc length: 2793 seconds
#
# Revision: 1
# Processed by: cddbd v1.5.2PL0 Copyright (c) Steve Scherf et al.
# Submitted via: audiograbber 1.82.01
#
DISCID=c80ae70f
DTITLE=PESADO - EN LA CANTINA
DYEAR=2010
DGENRE=RANCHERO
TTITLE0=01 La Redova de Gelardo - 01.La Redova de Gelardo
TTITLE1=02 Quiero que sepas - 02.Quiero que sepas
TTITLE2=03 Las tres tumbas - 03.Las tres tumbas
TTITLE3=04 Como estar con Dios - 04.Como estar con Dios
TTITLE4=05 Me refiero a ti - 05.Me refiero a ti
TTITLE5=06 Compre una cantina - 06.Compre una cantina
TTITLE6=07 Recuerdame y ven - 07.Recuerdame y ven
TTITLE7=08 Flor de capomo - 08.Flor de capomo
TTITLE8=09 Chiquilla cari - 09.Chiquilla cariñosa
TTITLE9=10 Laurita Garza - 10.Laurita Garza
TTITLE10=11 Una pagina mas - 11.Una pagina mas
TTITLE11=12 Somos ajenos - 12.Somos ajenos
TTITLE12=13 Miel Amarga - 13.Miel Amarga
TTITLE13=14 Alma vida y corazon - 14.Alma vida y corazon
TTITLE14=15 La Redova de Gelardo - 15.La Redova de Gelardo
EXTD=
EXTT0=
EXTT1=
EXTT2=
EXTT3=
EXTT4=
EXTT5=
EXTT6=
EXTT7=
EXTT8=
EXTT9=
EXTT10=
EXTT11=
EXTT12=
EXTT13=
EXTT14=
PLAYORDER=
